<?xml version="1.0" encoding="UTF-8"?>
<!-- Generated by Pixelmator Pro 2.4.3 -->
<svg width="800" height="800" viewBox="0 0 800 800" xmlns="http://www.w3.org/2000/svg" xmlns:xlink="http://www.w3.org/1999/xlink">
    <g id="SVGRepoiconCarrier">
        <path id="Path" fill="#ffffff" stroke="none" d="M 188.505661 74.244019 C 174.083328 78.012329 164.793335 83.340332 157.572662 90.414673 C 147.393005 100.388306 140.755997 114.390686 137.127335 140.833313 C 133.391998 168.052979 133.333328 204.128967 133.333328 255.856018 L 133.333328 541.473328 C 146.289001 532.603333 160.891327 525.853333 176.632996 521.723328 C 180.432007 520.723328 184.367676 519.943359 188.505661 519.329956 L 188.505661 74.244019 Z"/>
        <path id="path1" fill="#ffffff" stroke="none" d="M 289.658661 571.169983 L 249.117325 571.169983 C 213.135345 571.169983 200.556 571.40332 190.916 573.93335 C 164.458344 580.880005 143.366333 600.146667 134.320999 625.193359 C 134.880341 637.940063 135.756668 649.15332 137.131012 659.166626 C 140.759659 685.609985 147.396667 699.613342 157.57634 709.58667 C 167.756332 719.559998 182.04834 726.059998 209.03801 729.616699 C 236.820999 733.276672 273.643341 733.333313 326.440338 733.333313 L 473.56665 733.333313 C 526.363342 733.333313 563.186646 733.276672 590.969971 729.616699 C 617.959961 726.059998 632.25 719.559998 642.429993 709.58667 C 652.609985 699.613342 659.246643 685.609985 662.876648 659.166626 C 665.92334 636.960022 666.523376 608.856628 666.643311 571.169983 L 436.786652 571.169983 L 436.786652 671.390015 C 436.786652 681.323303 436.786652 686.286682 433.296692 688.293335 C 429.806671 690.299988 425.036652 688.080017 415.493317 683.639954 L 369.803345 662.376648 C 366.573334 660.873352 364.959991 660.123291 363.223328 660.123291 C 361.486664 660.123291 359.869995 660.873352 356.643341 662.376648 L 310.951019 683.639954 C 301.40802 688.080017 296.636688 690.299988 293.147644 688.293335 C 289.658661 686.286682 289.658661 681.323303 289.658661 671.390015 L 289.658661 571.169983 Z"/>
    </g>
    <path id="path2" fill="#ffffff" fill-rule="evenodd" stroke="none" d="M 243.677734 517.117188 L 243.677734 67.632813 C 266.044067 66.690125 293.046844 66.666016 326.4375 66.666016 L 473.5625 66.666016 C 526.359131 66.666016 563.183472 66.723145 590.966797 70.382813 C 617.956787 73.937805 632.245728 80.440735 642.425781 90.414063 C 652.605713 100.387695 659.243042 114.389709 662.873047 140.832031 C 666.606323 168.052002 666.666016 204.128479 666.666016 255.855469 L 666.666016 517.117188 L 244.853516 517.117188 C 244.459839 517.117188 244.068405 517.117188 243.677734 517.117188 Z M 337.638672 417 L 567.199219 417 L 568.314453 333.236328 L 548.255859 333.236328 C 544.29364 351.933075 536.864868 366.822449 525.96875 377.904297 C 515.072632 388.986145 498.604279 394.527344 476.564453 394.527344 C 463.439575 394.527344 454.246704 393.25705 448.984375 390.71875 C 443.722046 388.18045 440.470612 385.177887 439.232422 381.710938 C 437.994232 378.243988 437.375 371.125824 437.375 360.353516 L 437.375 216.599609 C 437.375 205.332031 439.264526 197.37561 443.041016 192.732422 C 446.817505 188.089172 455.020782 185.767578 467.650391 185.767578 L 472.664063 185.767578 L 472.664063 165.152344 L 337.638672 165.152344 L 337.638672 185.767578 L 341.353516 185.767578 C 353.611664 185.767578 361.721375 188.027466 365.683594 192.546875 C 369.645844 197.066284 371.626953 205.084412 371.626953 216.599609 L 371.626953 365.552734 C 371.626953 376.820313 369.73941 384.776672 365.962891 389.419922 C 362.186401 394.063141 353.983124 396.384766 341.353516 396.384766 L 337.638672 396.384766 L 337.638672 417 Z"/>
</svg>
