<?xml version="1.0" encoding="UTF-8"?>
<!-- Generated by Pixelmator Pro 2.4.3 -->
<svg width="800" height="800" viewBox="0 0 800 800" xmlns="http://www.w3.org/2000/svg" xmlns:xlink="http://www.w3.org/1999/xlink">
    <g id="SVGRepobgCarrier"/>
    <g id="SVGRepotracerCarrier"/>
    <g id="SVGRepoiconCarrier">
        <path id="Path" fill="#ffffff" stroke="none" d="M 623.462646 363.920319 C 616.843018 369.754181 613.328674 377.100372 611.837891 382.315369 C 607.753113 396.614838 592.861633 404.875916 578.572937 400.80191 C 564.284241 396.717102 556.006897 381.830994 560.086426 367.536896 C 563.719055 354.81427 571.840271 337.694702 587.861938 323.556671 C 604.400269 308.971954 627.665833 299.090912 658.406738 299.090912 C 721.255676 299.090912 757.765869 345.078522 757.765869 387.164398 C 757.765869 403.482056 754.622986 428.921906 737.320374 450.691345 C 735.022339 453.586761 732.536011 456.331451 729.861206 458.930939 C 731.804077 460.572357 733.698486 462.321472 735.528198 464.188965 C 738.235291 466.960571 740.802429 469.995941 743.170349 473.321899 C 752.615479 486.577301 757.765869 502.841156 757.765869 521.709839 C 757.765869 555.572266 746.324219 582.08844 725.577332 599.60083 C 705.637695 616.42981 680.596008 622 658.406738 622 C 637.589905 622 616.767639 618.544922 598.733154 607.130005 C 580.187439 595.381531 567.889954 577.341675 560.39856 554.587341 C 555.753967 540.460083 563.433838 525.25647 577.550354 520.606567 C 591.666809 515.956665 606.875916 523.641968 611.525818 537.753052 C 613.85614 544.83551 616.503906 549.98584 619.281006 553.796265 L 620.082825 554.861816 C 620.658691 555.582947 621.239929 556.255737 621.821228 556.885376 L 622.63385 557.724976 L 623.527222 558.591431 C 624.861938 559.813049 626.196655 560.814087 627.52594 561.653687 C 629.570923 562.956055 631.976746 564.113159 634.855957 565.081909 C 640.576843 567.013977 648.15448 568.181824 658.406738 568.181824 C 672.447937 568.181824 683.625977 564.586792 690.859192 558.473022 C 697.279663 553.058899 703.947693 542.876526 703.947693 521.709839 C 703.947693 513.039673 701.73584 507.916229 699.33551 504.536438 C 696.752258 500.909088 692.699707 497.62619 686.774353 494.854553 C 674.22937 488.966827 657.857849 487.454559 646.335449 487.454559 C 631.476135 487.454559 619.426331 475.410034 619.426331 460.545441 C 619.426331 445.686249 631.476135 433.636353 646.335449 433.636353 C 677.200073 433.636353 689.610535 424.21817 695.191528 417.200287 C 701.714233 409.003815 703.947693 397.745026 703.947693 387.164398 C 703.947693 375.431976 692.161499 352.909088 658.406738 352.909088 C 639.97406 352.909088 629.581787 358.522308 623.462646 363.920319 Z"/>
        <path id="path1" fill="#ffffff" stroke="none" d="M 333.022064 278.295593 C 333.022064 254.470276 352.941254 231.818176 377.971527 231.818176 C 396.064697 231.818176 411.020721 240.294556 418.426117 251.687866 C 425.024261 261.832581 428.204926 278.295593 414.653473 301.367432 C 408.087646 312.534698 398.281982 322.334991 385.432922 332.479736 C 379.027435 337.538635 372.19519 342.441467 364.848511 347.629547 L 361.783569 349.79837 C 355.47876 354.238403 348.790802 358.958252 342.329376 363.818024 C 311.856445 386.760712 279.203888 418.201294 279.203888 474 C 279.203888 488.864532 291.251099 500.909088 306.112976 500.909088 L 307.492828 500.871429 L 308.872192 500.909088 L 451.045349 500.909088 C 465.904541 500.909088 477.954437 488.864532 477.954437 474 C 477.954437 459.140778 465.904541 447.090912 451.045349 447.090912 L 338.234863 447.090912 C 344.793182 431.919556 357.331177 419.896606 374.689728 406.824127 C 380.192047 402.685516 385.867737 398.659912 391.909912 394.39212 L 392.711823 393.83783 L 395.914001 391.582855 C 403.303223 386.351685 411.160675 380.738495 418.792114 374.721619 C 434.0065 362.698608 449.651428 348.038544 461.055481 328.631714 C 483.433105 290.539185 482.798065 251.951538 463.541962 222.346191 C 445.093079 193.978577 412.140198 178 377.971527 178 C 319.383484 178 279.203888 228.734436 279.203888 278.295593 C 279.203888 293.165527 291.251099 305.204651 306.112976 305.204651 C 320.974854 305.204651 333.022064 293.165527 333.022064 278.295593 Z"/>
        <path id="path2" fill="#ffffff" stroke="none" d="M 82.366028 446.251343 C 93.495102 438.829834 104.142471 430.105865 113.936317 420.472443 L 113.936317 595.090942 C 113.936317 609.966248 125.983528 622 140.845413 622 C 155.707306 622 167.754501 609.966248 167.754501 595.090942 L 167.754501 326 C 167.754501 312.007233 157.068893 300.511658 143.410904 299.225433 C 130.028488 297.912292 117.485603 306.792297 114.540695 320.263 C 109.020546 345.487549 84.829819 379.925812 52.513615 401.47464 C 40.148369 409.714172 36.805714 426.424744 45.049046 438.792175 C 53.293999 451.154175 70.000763 454.490906 82.366028 446.251343 Z"/>
    </g>
</svg>
